<?xml version="1.0" standalone="no"?>
<!DOCTYPE svg PUBLIC "-//W3C//DTD SVG 20010904//EN"
 "http://www.w3.org/TR/2001/REC-SVG-20010904/DTD/svg10.dtd">
<svg version="1.0" xmlns="http://www.w3.org/2000/svg"
 width="520.000000pt" height="520.000000pt" viewBox="0 0 520.000000 520.000000"
 preserveAspectRatio="xMidYMid meet">

<g transform="translate(0.000000,520.000000) scale(0.100000,-0.100000)"
fill="#000000" stroke="none">
<path d="M3040 5197 c0 -2 14 -43 30 -91 17 -49 28 -96 25 -105 -7 -23 -25
-31 -207 -92 -153 -51 -470 -174 -539 -210 -27 -13 -39 -26 -39 -41 0 -21 -46
-68 -67 -68 -6 0 -32 -9 -57 -20 -44 -18 -46 -18 -37 -1 6 10 17 23 25 31 26
21 18 30 -16 18 -48 -17 -422 -208 -502 -257 -119 -73 -238 -166 -317 -248
-111 -114 -172 -209 -252 -393 -34 -77 -70 -256 -82 -410 -8 -92 25 -298 60
-380 13 -30 26 -69 29 -87 10 -58 149 -261 284 -417 53 -60 146 -147 211 -196
121 -91 147 -110 154 -110 4 0 30 -16 58 -35 28 -19 55 -32 61 -29 5 3 21 -6
35 -20 14 -14 30 -26 34 -26 5 0 11 0 14 0 15 -1 169 -72 204 -94 22 -14 45
-26 51 -26 13 0 22 -40 18 -75 -2 -24 -13 -32 -63 -54 -33 -14 -62 -28 -65
-31 -12 -14 -264 -130 -283 -130 -6 0 -18 -6 -26 -14 -9 -8 -41 -24 -71 -36
-30 -12 -64 -26 -75 -30 -55 -23 -154 -48 -185 -47 -63 1 -420 -169 -576 -274
-112 -75 -215 -193 -273 -313 -72 -147 -96 -251 -95 -406 1 -173 25 -253 122
-407 l45 -73 734 0 c431 0 733 4 733 9 0 5 66 35 148 67 81 31 208 86 282 122
74 35 169 80 210 99 96 45 128 68 132 95 2 14 14 25 33 31 17 6 32 13 35 17 4
7 76 40 86 40 2 0 4 -7 4 -15 0 -8 4 -15 10 -15 23 0 455 225 539 281 230 154
379 343 461 585 53 156 64 223 64 409 1 296 -62 521 -207 738 -93 140 -289
317 -350 317 -8 0 -20 7 -27 15 -11 13 -15 13 -21 3 -7 -10 -9 -10 -9 0 0 6
-9 12 -19 12 -11 0 -22 4 -26 9 -3 6 -38 26 -78 47 -39 20 -76 40 -82 44 -5 4
-57 32 -115 62 -190 99 -265 140 -282 156 -11 9 -18 29 -18 52 0 30 5 39 25
48 14 7 31 12 37 12 6 0 19 6 27 14 9 7 43 23 76 35 33 12 83 33 110 46 86 39
125 55 140 55 7 0 15 4 17 9 5 16 148 62 233 76 44 8 108 25 143 40 35 14 71
25 80 23 9 -2 53 -66 98 -143 46 -77 90 -151 99 -163 l17 -24 45 44 c56 53
106 127 163 238 24 47 54 103 67 125 13 22 46 85 74 140 28 55 65 125 82 155
57 103 247 490 294 598 100 235 115 280 114 359 0 76 -8 101 -45 141 -31 35
-64 49 -173 76 -222 55 -367 96 -377 106 -7 7 -208 10 -613 10 -332 0 -603 -2
-603 -3z"/>
</g>
</svg>
